<svg fill="white" xmlns="http://www.w3.org/2000/svg" viewBox="0 0 32 32" id="address-book"><path d="M8,30H25a3,3,0,0,0,3-3V5a3,3,0,0,0-3-3H8A3,3,0,0,0,5,5V7H4V9H5v2H4v2H5v2H4v2H5v2H4v2H5v2H4v2H5v2A3,3,0,0,0,8,30ZM7,25H8V23H7V21H8V19H7V17H8V15H7V13H8V11H7V9H8V7H7V5A1,1,0,0,1,8,4H25a1,1,0,0,1,1,1V27a1,1,0,0,1-1,1H8a1,1,0,0,1-1-1Z"></path><path d="M12.4,23.3h9.8a2.41,2.41,0,0,0,2.4-2.4V18.8a5.17,5.17,0,0,0-3.1-4.74,4.25,4.25,0,0,0,.3-1.56,4.5,4.5,0,0,0-9,0,4.34,4.34,0,0,0,.3,1.57A5.14,5.14,0,0,0,10,18.8v2.1A2.41,2.41,0,0,0,12.4,23.3ZM17.3,10a2.5,2.5,0,1,1-2.5,2.5A2.5,2.5,0,0,1,17.3,10ZM12,18.8a3.18,3.18,0,0,1,2.22-3,4.45,4.45,0,0,0,6.16,0,3.18,3.18,0,0,1,2.22,3v2.1a.4.4,0,0,1-.4.4H12.4a.4.4,0,0,1-.4-.4Z"></path></svg>