<svg fill="white" xmlns="http://www.w3.org/2000/svg" viewBox="0 0 24 24" id="communication-tower"><g data-name="Layer 2"><path d="M15 12.79a3 3 0 1 0-4 2.82v4.19H9v2h6v-2h-2v-4.19a3 3 0 0 0 2-2.82Zm-3-1a1 1 0 1 1-1 1 1 1 0 0 1 1-1Z"></path><path d="M16.94 17.75a6.93 6.93 0 0 0 2.06-5 7 7 0 1 0-14 0 6.93 6.93 0 0 0 2.06 5l1.41-1.42A4.94 4.94 0 0 1 7 12.79a5 5 0 1 1 10 0 4.94 4.94 0 0 1-1.46 3.53Z"></path><path d="M12 1.77a11 11 0 0 0-7.78 18.8l1.41-1.42a9 9 0 1 1 12.73 0l1.41 1.42A11 11 0 0 0 12 1.77Z"></path></g></svg>