<svg fill="white" xmlns="http://www.w3.org/2000/svg" viewBox="0 0 32 32" id="puzzle"><path d="M22,31H16a1,1,0,0,1-1-1V27a2,2,0,0,0-4,0v3a1,1,0,0,1-1,1H4a3,3,0,0,1-3-3V22a1,1,0,0,1,1-1H5a2,2,0,0,0,0-4H2a1,1,0,0,1-1-1V10A3,3,0,0,1,4,7H9V5a4,4,0,0,1,8,0V7h5a3,3,0,0,1,3,3v5h2a4,4,0,0,1,0,8H25v5A3,3,0,0,1,22,31Zm-5-2h5a1,1,0,0,0,1-1V22a1,1,0,0,1,1-1h3a2,2,0,0,0,0-4H24a1,1,0,0,1-1-1V10a1,1,0,0,0-1-1H16a1,1,0,0,1-1-1V5a2,2,0,0,0-4,0V8a1,1,0,0,1-1,1H4a1,1,0,0,0-1,1v5H5a4,4,0,0,1,0,8H3v5a1,1,0,0,0,1,1H9V27a4,4,0,0,1,8,0Z"></path></svg>