<svg fill="white" xmlns="http://www.w3.org/2000/svg" viewBox="0 0 64 64" id="recovered"><circle cx="32" cy="19.5" r="3.5"></circle><path d="M26 26v8l2 3v11h8V37l2-3v-8a3 3 0 0 0-3-3h-6a3 3 0 0 0-3 3z"></path><path d="M32 8c-2.495 0-4.952.381-7.304 1.133l.608 1.904A21.986 21.986 0 0 1 32 10c12.131 0 22 9.869 22 22s-9.869 22-22 22-22-9.869-22-22a22.052 22.052 0 0 1 6.672-15.771L19.2 19.6a1 1 0 0 0 1.77-.358l2-8A.998.998 0 0 0 22 10h-8a1.001 1.001 0 0 0-.8 1.6l2.263 3.017A24.056 24.056 0 0 0 8 32c0 13.233 10.767 24 24 24s24-10.767 24-24S45.233 8 32 8zm29.876-2.189c-1.988-.88-2.807-1.699-3.687-3.687a.206.206 0 0 0-.378 0c-.88 1.988-1.699 2.807-3.687 3.687a.206.206 0 0 0 0 .378c1.988.88 2.807 1.699 3.687 3.687a.206.206 0 0 0 .378 0c.88-1.988 1.699-2.807 3.687-3.687a.206.206 0 0 0 0-.378zm-52 52c-1.988-.88-2.807-1.699-3.687-3.687a.206.206 0 0 0-.378 0c-.88 1.988-1.699 2.807-3.687 3.687a.206.206 0 0 0 0 .378c1.988.88 2.807 1.699 3.687 3.687a.206.206 0 0 0 .378 0c.88-1.988 1.699-2.807 3.687-3.687a.206.206 0 0 0 0-.378z"></path></svg>