<svg xmlns="http://www.w3.org/2000/svg" fill="white" enable-background="new 0 0 32 32" viewBox="0 0 32 32" id="transaction-arrow"><path d="M3.15224 10.50309h22.07926l-4.43693 4.43693c-.95533.88878-.22278 2.60581 1.06001 2.55907.3835.00002.76707-.14638 1.05988-.43918l6.99603-6.99603c.4104-.43878.53495-1.06979.32497-1.63385C30.1434 8.25952 30.03307 8.0941 29.91047 7.944c.00001 0-6.99602-6.99603-6.99602-6.99603-1.41423-1.36727-3.49139.70043-2.11984 2.11994-.00005-.00005 4.43688 4.43689 4.43688 4.43689H3.15224C1.19597 7.53414 1.1703 10.4684 3.15224 10.50309zM28.85053 21.49685H6.77127l4.43693-4.43693c1.3686-1.411-.7014-3.49272-2.11994-2.11984.00004-.00005-6.99598 6.99598-6.99598 6.99598-.4174.44802-.56186 1.13714-.28833 1.69479.07677.15288.18415.29164.28833.4251 0 0 6.99603 6.99603 6.99603 6.99603 1.41431 1.3675 3.49133-.7007 2.11984-2.11994.00005.00005-4.43689-4.43689-4.43689-4.43689h22.07926C30.80667 24.46612 30.83249 21.53135 28.85053 21.49685z"></path></svg>