<svg fill="white" xmlns="http://www.w3.org/2000/svg" viewBox="0 0 66 66" id="biometric-identification"><path d="M16.365 9.224a1 1 0 0 0 1.414.023A21.856 21.856 0 0 1 31.462 3.14a1 1 0 0 0 .928-1.066 1.011 1.011 0 0 0-1.067-.93A23.865 23.865 0 0 0 16.386 7.81a1 1 0 0 0-.021 1.414zm18.026-7.117a1 1 0 0 0 .892 1.098A21.86 21.86 0 0 1 48.747 9.78a.997.997 0 0 0 1.414.026 1 1 0 0 0 .025-1.414A23.863 23.863 0 0 0 35.49 1.216a.992.992 0 0 0-1.099.891zM9.121 26.62a1 1 0 1 0 2 0v-1.653a21.718 21.718 0 0 1 4.154-12.835 1 1 0 1 0-1.619-1.174 23.706 23.706 0 0 0-4.535 14.01v1.652zm43.686-14.986a.999.999 0 1 0-1.658 1.117c4.593 6.818 3.575 13.403 3.722 14.659a1 1 0 1 0 2 0c-.148-1.245.953-8.331-4.064-15.776z"></path><path d="M56.75 32.632a1 1 0 0 0-.405-1.355 6.641 6.641 0 0 1-3.474-5.84c0-10.876-8.647-20.35-19.88-20.35-10.956 0-19.87 8.918-19.87 19.88a7.146 7.146 0 0 1-3.508 6.129 1 1 0 0 0 1.016 1.722 9.155 9.155 0 0 0 4.492-7.85c0-9.86 8.016-17.88 17.87-17.88 10.106 0 17.88 8.535 17.88 18.349a8.642 8.642 0 0 0 4.525 7.6 1 1 0 0 0 1.355-.405z"></path><path d="M47.128 20.57a1 1 0 0 0 .557-1.3c-2.207-5.527-7.101-9.386-12.773-10.072a1 1 0 0 0-.24 1.985c4.945.598 9.22 3.981 11.156 8.829a1 1 0 0 0 1.3.558zm7.891 16.686a1 1 0 0 0 .713-1.87c-4.104-1.563-6.861-5.561-6.861-9.95 0-.684-.043-1.377-.128-2.057a.998.998 0 0 0-1.116-.868c-1.255.156-.756 1.463-.756 2.926 0 5.212 3.274 9.962 8.148 11.819zM18.07 19.557a1 1 0 1 0 1.88.683 13.868 13.868 0 0 1 11.002-9.003 1 1 0 0 0-.293-1.979 15.862 15.862 0 0 0-12.589 10.3zm-7.61 17.741a13.141 13.141 0 0 0 8.66-12.33c0-.37.015-.734.043-1.095a1 1 0 1 0-1.994-.152c-.032.412-.048.827-.048 1.246 0 4.668-2.95 8.867-7.34 10.45a1 1 0 0 0 .679 1.881zm45.237 8.036a1.002 1.002 0 0 0-1.309.538c-1.773 4.244-4.065 8.17-6.813 11.667a1 1 0 1 0 1.572 1.236c2.86-3.64 5.244-7.722 7.087-12.133a1 1 0 0 0-.537-1.308zm-11.357 9.76a46.66 46.66 0 0 1-7.857 7.836 1 1 0 0 0 1.236 1.574 48.725 48.725 0 0 0 8.193-8.174 1 1 0 1 0-1.572-1.236zm2.573-1.792a1 1 0 0 0 1.385-.287c2.572-3.916 4.593-8.258 6.01-12.906a1.001 1.001 0 0 0-1.914-.583c-1.36 4.465-3.3 8.635-5.768 12.391a1 1 0 0 0 .287 1.385zM30.306 64.714C40.428 58.619 47.498 49.36 50.753 37.94a1 1 0 1 0-1.924-.548c-3.112 10.924-9.874 19.779-19.554 25.608a.999.999 0 1 0 1.031 1.713z"></path><path d="M39.915 47.371a39.069 39.069 0 0 1-7.043 8.044 1 1 0 1 0 1.31 1.51 41.078 41.078 0 0 0 7.405-8.455 1 1 0 0 0-1.672-1.099zM24.62 63.225a45.156 45.156 0 0 0 6.345-3.768 1 1 0 1 0-1.16-1.629 43.117 43.117 0 0 1-6.064 3.6 1 1 0 0 0 .879 1.797zm17.691-17.864a1 1 0 0 0 1.35-.423c1.7-3.248 2.999-6.793 3.864-10.536a1 1 0 1 0-1.949-.45c-.826 3.577-2.066 6.961-3.687 10.06a1 1 0 0 0 .422 1.349z"></path><path d="M20.159 60.803c14.69-5.996 23.657-18.884 24.6-35.356.042-.692.016-1.425-.075-2.18a.996.996 0 0 0-.022-.12 2.022 2.022 0 0 1-.012-.055c-1.118-5.944-6.32-10.361-12.207-9.994-5.954.347-10.627 5.201-10.97 10.977-.506 8.19-4.91 13.481-11.666 15.712a1 1 0 1 0 .627 1.9c7.627-2.52 12.486-8.58 13.036-17.49.267-4.502 3.69-8.289 8.122-9 5.656-.806 10.157 3.239 11.095 8.283l.016.07.001.004c.073.62.093 1.216.06 1.776-.899 15.674-9.413 27.929-23.36 33.621a1 1 0 1 0 .755 1.852z"></path><path d="M24.478 32.974a1 1 0 0 0 1.296-.567c.952-2.433 1.519-5.115 1.685-7.969.145-2.368 1.76-4.423 4.02-5.113a1 1 0 0 0 .663-1.248c-.627-2.071-6.358 1.01-6.68 6.242-.154 2.647-.675 5.123-1.551 7.359a1 1 0 0 0 .567 1.296zm2.16 18.388a1 1 0 0 0-1.397-.222c-2.767 2.012-5.876 3.627-9.24 4.803a1 1 0 0 0 .66 1.888c3.549-1.24 6.831-2.947 9.756-5.073a1 1 0 0 0 .22-1.396zM39.71 32.565c.493-2.086 1.335-6.864.96-8.976-.61-2.86-2.611-5.2-5.225-6.11a1 1 0 0 0-.656 1.89c1.956.68 3.46 2.456 3.918 4.603.295 1.687-.547 6.454-.944 8.133a1 1 0 0 0 1.947.46zm-17.505 2.522c-2.46 3.973-6.672 7.241-12.066 8.768a1 1 0 0 0 .544 1.925c5.915-1.675 10.507-5.266 13.221-9.64a1 1 0 0 0-1.7-1.053zm15.738.14a1 1 0 0 0-1.277.607c-1.774 4.991-4.608 9.312-8.425 12.845a1 1 0 1 0 1.36 1.468c4.055-3.755 7.067-8.344 8.95-13.643a1 1 0 0 0-.608-1.277z"></path><path d="M11.643 49.649C23.298 46.343 30.702 37.01 31.45 24.69c.058-.908.766-1.602 1.662-1.614.458 0 .885.184 1.201.52.326.344.489.796.461 1.272-.775 13.48-8.748 23.848-21.327 27.732a1 1 0 0 0 .59 1.911c13.41-4.14 21.91-15.18 22.733-29.527a3.721 3.721 0 0 0-1.002-2.76c-.698-.74-1.641-1.148-2.7-1.148-1.936.027-3.49 1.526-3.614 3.49-.694 11.437-7.556 20.094-18.355 23.158a1 1 0 1 0 .545 1.924z"></path></svg>