<svg fill="white" xmlns="http://www.w3.org/2000/svg" enable-background="new 0 0 24 24" viewBox="0 0 24 24" id="paste"><path d="M10.029,21h6.245c1.457,0,2.642-1.186,2.642-2.643V7.945c0-1.352-1.023-2.456-2.334-2.611C16.427,4.024,15.322,3,13.971,3
	H7.726C6.269,3,5.084,4.186,5.084,5.643v10.423c0,1.352,1.024,2.457,2.335,2.612C7.579,19.982,8.682,21,10.029,21z M17.916,7.945
	v10.412c0,0.905-0.736,1.643-1.642,1.643h-6.245c-0.905,0-1.643-0.737-1.643-1.643v-0.149V7.945c0-0.905,0.737-1.642,1.643-1.642
	h6.084h0.161C17.18,6.303,17.916,7.04,17.916,7.945z M6.084,16.065V5.643C6.084,4.737,6.82,4,7.726,4h6.245
	c0.789,0,1.45,0.56,1.607,1.303h-5.549c-1.457,0-2.643,1.185-2.643,2.642v9.728C6.644,17.517,6.084,16.854,6.084,16.065z"></path></svg>