<svg xmlns="http://www.w3.org/2000/svg" viewBox="0 0 24 24" id="swapleftright"><g data-name="swap left right" fill="#ffffff" class="color000000 svgShape"><path d="M2.31 8.29a.78.78 0 00.16.24l3 3a.75.75 0 001.06 0 .75.75 0 000-1.06L4.81 8.75H21a.75.75 0 000-1.5H4.81L6.53 5.53A.75.75 0 005.47 4.47l-3 3a.78.78 0 00-.16.24A.73.73 0 002.31 8.29zM21.69 15.71a.78.78 0 00-.16-.24l-3-3a.75.75 0 00-1.06 1.06l1.72 1.72H3a.75.75 0 000 1.5H19.19l-1.72 1.72a.75.75 0 000 1.06.75.75 0 001.06 0l3-3a.78.78 0 00.16-.24A.73.73 0 0021.69 15.71z" fill="#ffffff" class="color000000 svgShape"></path></g></svg>